<svg xmlns="http://www.w3.org/2000/svg" width="128" height="128" viewBox="0 0 128 128" shape-rendering="crispEdges">
  <!-- Original pixel-art style notepad icon (clean-room, no external assets) -->
  <defs>
    <style>
      .p{image-rendering: pixelated;}
    </style>
  </defs>
  <rect width="128" height="128" fill="none"/>

  <!-- Shadow/base -->
  <g class="p">
    <rect x="14" y="20" width="90" height="96" fill="#2b4a80"/>
    <rect x="18" y="16" width="90" height="96" fill="#3a66b3"/>
  </g>

  <!-- Page -->
  <g class="p">
    <!-- border -->
    <rect x="22" y="20" width="82" height="88" fill="#111"/>
    <!-- paper -->
    <rect x="26" y="24" width="74" height="80" fill="#f2f2ee"/>
    <!-- page fold -->
    <rect x="88" y="24" width="12" height="12" fill="#d6d6d0"/>
    <rect x="94" y="30" width="6" height="6" fill="#bdbdb6"/>
  </g>

  <!-- Binding top band -->
  <g class="p">
    <rect x="26" y="16" width="74" height="8" fill="#2f7bbd"/>
    <rect x="26" y="16" width="12" height="8" fill="#7cc6df"/>
    <rect x="40" y="16" width="12" height="8" fill="#6fb9d4"/>
  </g>

  <!-- Light lines on paper -->
  <g class="p" opacity="0.25">
    <rect x="30" y="38" width="66" height="2" fill="#4aa3d8"/>
    <rect x="30" y="50" width="66" height="2" fill="#4aa3d8"/>
    <rect x="30" y="62" width="66" height="2" fill="#4aa3d8"/>
    <rect x="30" y="74" width="66" height="2" fill="#4aa3d8"/>
    <rect x="30" y="86" width="66" height="2" fill="#4aa3d8"/>
  </g>

  <!-- Pencil (simple pixel style) -->
  <g class="p">
    <!-- shadow -->
    <rect x="54" y="86" width="40" height="8" fill="#b48c3a" opacity="0.25"/>
    <!-- body -->
    <rect x="52" y="84" width="40" height="8" fill="#e19a2a"/>
    <rect x="92" y="84" width="8" height="8" fill="#353535"/>
    <!-- tip -->
    <rect x="48" y="84" width="4" height="8" fill="#d9c2a1"/>
    <rect x="46" y="86" width="2" height="4" fill="#2b2b2b"/>
  </g>

  <!-- Outer highlight -->
  <g class="p" opacity="0.1">
    <rect x="22" y="20" width="82" height="4" fill="#ffffff"/>
    <rect x="22" y="20" width="4" height="88" fill="#ffffff"/>
  </g>
</svg>
